<svg xmlns="http://www.w3.org/2000/svg" width="48.001" height="48" viewBox="0 0 48.001 48"><g transform="translate(-116.001 3164.992)"><rect width="48.001" height="47.997" transform="translate(116.001 -3164.992)" fill="none"/><path d="M133-3144.992l-8-8v-11h31v11l-10,10h-6v4" transform="translate(-8)" fill="none" stroke="#f6bd38" stroke-miterlimit="79.84" stroke-width="2" fill-rule="evenodd"/><path d="M140-3158.992v10" transform="translate(-8)" fill="none" stroke="#f6bd38" stroke-miterlimit="79.84" stroke-width="2" fill-rule="evenodd"/><path d="M140-3138.992v1c0,3,3,4,4.843,5.626a8.046,8.046,0,0,1,3.157,6.374,8,8,0,0,1-8,8,8,8,0,0,1-8-8" transform="translate(-8)" fill="none" stroke="#f6bd38" stroke-miterlimit="79.84" stroke-width="2" fill-rule="evenodd"/><path d="M147-3158.992v5" transform="translate(-8)" fill="none" stroke="#f6bd38" stroke-miterlimit="79.84" stroke-width="2" fill-rule="evenodd"/><path d="M133-3158.992v5" transform="translate(-8)" fill="none" stroke="#f6bd38" stroke-miterlimit="79.84" stroke-width="2" fill-rule="evenodd"/></g></svg>