<svg xmlns="http://www.w3.org/2000/svg" width="48.001" height="48.001" viewBox="0 0 48.001 48.001"><g transform="translate(-175.001 3164.993)"><rect width="48.001" height="47.997" transform="translate(175.001 -3164.992)" fill="none"/><path d="M217.5-3137.406v-7.186l3.368-4.6-3.821-6.613-5.661.627-6.227-3.6-2.3-5.213H195.22l-2.3,5.213-6.227,3.6-5.661-.627-3.82,6.613,3.369,4.6v7.186l-3.369,4.6,3.82,6.613,5.661-.613,6.227,3.6,2.3,5.213h7.635l2.3-5.213,6.227-3.6,5.661.613,3.821-6.613" fill="none" stroke="#f6bd38" stroke-miterlimit="79.84" stroke-width="2.001" fill-rule="evenodd"/><path d="M203.854-3135.952a6.972,6.972,0,0,1-4.853,1.96,7,7,0,0,1-7-7,7,7,0,0,1,7-7,7,7,0,0,1,7,7" fill="none" stroke="#f6bd38" stroke-miterlimit="79.84" stroke-width="2" fill-rule="evenodd"/></g></svg>