<svg xmlns="http://www.w3.org/2000/svg" width="48.001" height="48.001" viewBox="0 0 48.001 48.001"><g transform="translate(-58.001 3164.993)"><rect width="48.001" height="47.997" transform="translate(58.001 -3164.992)" fill="none"/><path d="M70-3149.992v-2l2-2c.5-6.027,4.733-10,10-10s9.5,3.973,10,10l2,2v2Z" fill="none" stroke="#f6bd38" stroke-miterlimit="79.84" stroke-width="2.001" fill-rule="evenodd"/><path d="M73-3146.992c0,6,3.375,12,9,12" fill="none" stroke="#f6bd38" stroke-miterlimit="79.84" stroke-width="2.001" fill-rule="evenodd"/><path d="M91-3146.992c0,6-3.375,12-9,12" fill="none" stroke="#f6bd38" stroke-miterlimit="79.84" stroke-width="2.001" fill-rule="evenodd"/><path d="M75-3134.992l-14,7v10H81" fill="none" stroke="#f6bd38" stroke-miterlimit="79.84" stroke-width="2.001" fill-rule="evenodd"/><path d="M70-3131.992v8" fill="none" stroke="#f6bd38" stroke-miterlimit="79.84" stroke-width="2.001" fill-rule="evenodd"/><path d="M89-3134.992l14,7v10H80" fill="none" stroke="#f6bd38" stroke-miterlimit="79.84" stroke-width="2.001" fill-rule="evenodd"/><path d="M94-3131.992v8" fill="none" stroke="#f6bd38" stroke-miterlimit="79.84" stroke-width="2.001" fill-rule="evenodd"/><path d="M78-3162.992v7" fill="none" stroke="#f6bd38" stroke-miterlimit="79.84" stroke-width="2.001" fill-rule="evenodd"/><path d="M86-3162.992v7" fill="none" stroke="#f6bd38" stroke-miterlimit="79.84" stroke-width="2.001" fill-rule="evenodd"/></g></svg>