<svg xmlns="http://www.w3.org/2000/svg" width="290" height="37" viewBox="0 0 290 37"><g transform="translate(-130 -43.125)"><g transform="translate(130 43.125)"><path d="M184.571,78.4h0V74.368h0V59.244h3.967V74.512h15.017V59.244h3.967V74.512h0v4.033H184.571ZM24.2,78.4h0V74.368h0V62.989h0V59.1H47.151v3.889H28.025V74.368H47.009v3.889H24.2Zm26.634,0h0V74.368h0V62.989h0V59.1H73.785v3.889h0V74.368h0v3.889H50.834Zm26.776,0V63.133h0V59.244h22.809v3.889h0V78.4H96.452V63.133H81.577V78.4Zm99.17,0V71.055H161.762V78.4H157.8V71.055h0V67.166h0V63.133h0V59.244H180.6v3.889h0v4.033h-3.825v3.889H180.6V78.4Zm34.426,0h0V74.368h0V62.989h0V59.1h22.951v3.889H215.172V74.368h18.984v3.889H211.205Zm53.41,0h0V74.368h0V62.989h0V59.1h22.951v3.889h0V74.368h0v3.889H264.615Zm45.76,0V71.055H295.358V78.4h-3.967V71.055h0V67.166h0V63.133h0V59.244H314.2v3.889h0v4.033h-3.825v3.889H314.2V78.4Zm-205.989,0V74.512H123.37V71.055H104.244V67.166h0V63.133h0V59.244h22.951v3.889H108.211v4.033h18.984v3.889h0v3.457h0V78.4Zm36.126,0V63.133H131.02V59.244h22.809v3.889h-9.492V78.4Zm106.961,0V63.133h-9.492V59.244H260.79v3.889H251.3V78.4ZM69.818,74.512V63.133H54.8V74.512Zm213.781,0V63.133H268.582V74.512Zm-106.82-7.346V63.133H161.762v4.033Zm133.6,0V63.133H295.358v4.033Z" transform="translate(-24.2 -59.1)" fill-rule="evenodd"/><rect width="131.797" height="13.252" transform="translate(158.203 23.748)" fill="#f5bd38"/><g transform="translate(247.94 27.205)"><path d="M199.7,83.113a3.26,3.26,0,0,1,3.313-3.313,3.167,3.167,0,0,1,2.449.864l-.864,1.008a1.967,1.967,0,0,0-1.584-.576,2.022,2.022,0,0,0,0,4.033,1.761,1.761,0,0,0,1.3-.432v-.864h-1.44V82.681h2.737v2.737a4.228,4.228,0,0,1-2.737,1.008A3.064,3.064,0,0,1,199.7,83.113Z" transform="translate(-199.7 -79.8)" fill="#fff"/><path d="M205.1,79.9h2.881a3.207,3.207,0,0,1,1.873.576,2.2,2.2,0,0,1,.576,1.44,2.1,2.1,0,0,1-1.3,2.017l1.584,2.3h-1.584l-1.44-2.017h-1.008v2.017h-1.44V79.9Zm2.881,3.169c.72,0,1.008-.432,1.008-.864,0-.576-.432-.864-1.152-.864H206.4v1.873h1.584Z" transform="translate(-197.322 -79.756)" fill="#fff"/><path d="M209.8,83.113a3.26,3.26,0,0,1,3.313-3.313,3.176,3.176,0,0,1,3.313,3.313,3.313,3.313,0,1,1-6.626,0Zm5.329,0a1.941,1.941,0,0,0-1.873-2.017,1.855,1.855,0,0,0-1.873,2.017,1.878,1.878,0,1,0,3.745,0Z" transform="translate(-195.252 -79.8)" fill="#fff"/><path d="M215.6,83.6V80h1.44v3.6c0,1.008.576,1.584,1.3,1.584.864,0,1.3-.576,1.3-1.584V80h1.44v3.6a2.545,2.545,0,0,1-2.737,2.881A2.612,2.612,0,0,1,215.6,83.6Z" transform="translate(-192.698 -79.712)" fill="#fff"/><path d="M220.7,79.9h2.593a2.2,2.2,0,0,1,2.449,2.161c0,1.44-1.152,2.161-2.593,2.161H222.14v1.873H220.7Zm2.593,3.313a1.017,1.017,0,1,0,0-2.017h-1.008v1.873h1.008Z" transform="translate(-190.451 -79.756)" fill="#fff"/></g><g transform="translate(0.144 27.205)"><path d="M24.3,83.113A3.176,3.176,0,0,1,27.613,79.8a3.227,3.227,0,0,1,2.449,1.008l-.72.864a2.658,2.658,0,0,0-1.728-.72,2.248,2.248,0,0,0-2.161,2.3,2.159,2.159,0,0,0,2.161,2.3,2.536,2.536,0,0,0,1.873-.864l.72.72a3.373,3.373,0,0,1-2.593,1.152A3.477,3.477,0,0,1,24.3,83.113Z" transform="translate(-24.3 -79.8)"/><path d="M31.317,80.908H29.3V79.9h5.185v1.008H32.469v5.33H31.317Z" transform="translate(-22.098 -79.756)"/><path d="M34.344,79.9h2.449a2.2,2.2,0,0,1,2.449,2.161c0,1.44-1.152,2.161-2.593,2.161h-1.3v2.017H34.2V79.9Zm2.3,3.313c.864,0,1.3-.432,1.3-1.152a1.176,1.176,0,0,0-1.3-1.152h-1.3v2.3h1.3Z" transform="translate(-19.94 -79.756)"/><path d="M38.8,83.113A3.35,3.35,0,0,1,42.113,79.8a3.176,3.176,0,0,1,3.313,3.313,3.35,3.35,0,0,1-3.313,3.313A3.258,3.258,0,0,1,38.8,83.113Zm5.474,0a2.165,2.165,0,1,0-2.161,2.3A2.159,2.159,0,0,0,44.274,83.113Z" transform="translate(-17.914 -79.8)"/><path d="M44.9,79.9h1.152v4.609L49.221,79.9H50.23v6.338H49.077V81.629l-3.169,4.609H44.9Z" transform="translate(-15.228 -79.756)"/><path d="M51.917,80.908H49.9V79.9h5.185v1.008H53.069v5.33H51.917v-5.33Z" transform="translate(-13.026 -79.756)"/><path d="M54.8,79.9h4.753v1.008h-3.6v1.584h3.169V83.5H55.952v1.728h3.6v1.008H54.8Z" transform="translate(-10.868 -79.756)"/><path d="M59,86.238l.144-.864h.432c.576,0,1.3-.432,1.3-4.177V79.9h4.321v6.338H64.041V80.908H61.881v.576c0,4.033-.72,4.9-2.017,4.9A1.827,1.827,0,0,0,59,86.238Z" transform="translate(-9.018 -79.756)"/><path d="M64.9,79.9h1.152v2.3h1.44c1.44,0,2.449.72,2.449,2.017s-.864,2.017-2.449,2.017H64.9Zm2.593,5.33c.864,0,1.3-.432,1.3-1.152s-.432-1.008-1.3-1.008h-1.44v2.161Z" transform="translate(-6.42 -79.756)"/><path d="M69.7,79.9h1.152v2.593h3.025V79.9H75.03v6.338H73.877V83.5H70.852v2.737H69.7Z" transform="translate(-4.306 -79.756)"/><path d="M77.481,79.9h1.008l2.737,6.338H80.074L79.5,84.653H76.473l-.72,1.584H74.6Zm1.584,3.889L77.913,81.2l-1.152,2.593Z" transform="translate(-2.148 -79.756)"/><path d="M81.928,83.789a1.865,1.865,0,0,1-1.44-1.873c0-1.3.864-2.017,2.3-2.017h2.881v6.338H84.521V84.077h-1.44L81.5,86.238H80.2Zm2.449-.72V80.908H82.793c-.864,0-1.3.432-1.3,1.152a1.176,1.176,0,0,0,1.3,1.152h1.584Z" transform="translate(0.319 -79.756)"/><path d="M88,79.9h1.152v3.169L92.177,79.9h1.3l-2.593,2.737,2.737,3.6h-1.3l-2.161-2.881-1.152,1.008v1.873H88Z" transform="translate(3.754 -79.756)"/><path d="M92.7,83.113A3.35,3.35,0,0,1,96.013,79.8a3.176,3.176,0,0,1,3.313,3.313,3.35,3.35,0,0,1-3.313,3.313A3.258,3.258,0,0,1,92.7,83.113Zm5.474,0a2.165,2.165,0,1,0-2.161,2.3A2.159,2.159,0,0,0,98.174,83.113Z" transform="translate(5.824 -79.8)"/><path d="M98.788,79.9H99.94l1.873,3.025,1.873-3.025h1.152v6.338h-1.152V81.629l-2.017,3.025h0l-2.017-3.025v4.465H98.5V79.9Z" transform="translate(8.378 -79.756)"/><path d="M104.7,79.9h5.185v6.338h-1.152V80.908h-2.881v5.329H104.7Z" transform="translate(11.109 -79.756)"/><path d="M112.381,79.9h1.008l2.737,6.338h-1.152l-.576-1.584h-3.025l-.72,1.584H109.5Zm1.584,3.889L112.813,81.2l-1.152,2.593Z" transform="translate(13.223 -79.756)"/><path d="M115.5,79.9h1.152v2.593h3.025V79.9h1.152v6.338h-1.152V83.5h-3.025v2.737H115.5Z" transform="translate(15.865 -79.756)"/><path d="M120.8,79.9h1.152v4.609l3.169-4.609h1.008v6.338h-1.152V81.629l-3.169,4.609H120.8Z" transform="translate(18.199 -79.756)"/><path d="M127.528,83.789a1.865,1.865,0,0,1-1.44-1.873c0-1.3.864-2.017,2.3-2.017h2.881v6.338h-1.152V84.077h-1.44L127.1,86.238h-1.3Zm2.593-.72V80.908h-1.584c-.864,0-1.3.432-1.3,1.152a1.176,1.176,0,0,0,1.3,1.152h1.584Z" transform="translate(20.401 -79.756)"/></g></g></g></svg>